<svg width="65" height="64" viewBox="0 0 65 64" fill="none" xmlns="http://www.w3.org/2000/svg">
<path d="M0.242213 60.1486C0.0815042 60.5032 0 60.8817 0 61.2708C0 62.7757 1.22444 64 2.75314 64C3.11831 64 3.47333 63.9286 3.80856 63.7877L36.8475 49.9318L15.163 27.1074L0.242213 60.1486ZM14.4411 38.2131C14.4411 39.9192 13.0528 41.3075 11.3467 41.3075C11.2404 41.3075 11.1386 41.2775 11.0331 41.266L13.4345 35.9489C14.0603 36.5296 14.4411 37.3423 14.4411 38.2131L14.4411 38.2131ZM7.22085 53.6851C7.22085 55.3912 5.83255 56.7795 4.12644 56.7795C4.09467 56.7795 4.06473 56.768 4.0325 56.7671L6.37588 51.5779C6.90406 52.1438 7.22087 52.8917 7.22087 53.6851L7.22085 53.6851ZM20.6536 54.4864C20.7728 52.8889 22.0962 51.6222 23.724 51.6222C24.4617 51.6222 25.1524 51.9067 25.7036 52.3691L20.6536 54.4864ZM21.7684 37.0539C21.0413 37.9629 20.6296 39.0952 20.6296 40.2754C20.6296 42.1095 21.6169 43.8206 23.2064 44.7407L24.2397 42.9563C23.2856 42.4032 22.6925 41.3759 22.6925 40.2754C22.6925 39.6639 22.8854 39.0791 23.2156 38.5777L27.3475 42.9273C26.876 43.2036 26.3441 43.3698 25.787 43.3698V45.4327C26.8783 45.4327 27.9305 45.0842 28.8007 44.457L33.2927 49.1851L27.7545 51.5068C26.7843 50.2921 25.302 49.5586 23.724 49.5586C20.8801 49.5586 18.5667 51.872 18.5667 54.7159C18.5667 54.9264 18.5809 55.1368 18.6058 55.344L3.00997 61.8846C2.92984 61.9187 2.84097 61.9362 2.72954 61.9362C2.36253 61.9362 2.06323 61.6369 2.06323 61.2699C2.06323 61.175 2.08303 61.0834 2.12217 60.9954L3.14351 58.7354C3.46585 58.7994 3.79417 58.8418 4.12617 58.8418C6.97008 58.8418 9.28353 56.5283 9.28353 53.6844C9.28353 52.0773 8.5265 50.5661 7.27033 49.5967L10.1493 43.2214C10.5397 43.3149 10.9413 43.3697 11.3465 43.3697C14.1904 43.3697 16.5038 41.0562 16.5038 38.2123C16.5038 36.533 15.6704 34.965 14.3119 34.005L15.7809 30.7517L21.7684 37.0539Z" fill="black"/>
<path d="M39.6687 24.7356L44.3536 33.1038L49.0384 24.7346L58.5362 24.8193L53.7151 16.5519L58.5362 8.28351L49.0384 8.36823L44.3536 0L39.6687 8.36918L30.1709 8.28353L34.9921 16.5519L30.1709 24.8203L39.6687 24.7356ZM33.781 10.3798L40.8724 10.4438L44.3536 4.22284L47.8347 10.4425L54.9261 10.3785L51.3261 16.5522L54.9261 22.7244L47.8347 22.6604L44.3536 28.8814L40.8724 22.6617L33.781 22.7257L37.3811 16.552L33.781 10.3798Z" fill="black"/>
<path d="M42.0746 20.5873L44.353 24.6583L46.6314 20.5873L51.3154 20.6296L48.9379 16.5521L51.3154 12.476L46.6314 12.5183L44.353 8.44583L42.0746 12.5169L37.3906 12.4745L39.7681 16.5521L37.3906 20.6282L42.0746 20.5873ZM41.0007 14.5707L43.2782 14.5914L44.353 12.6698L45.4277 14.5914L47.7052 14.5707L46.549 16.5522L47.7052 18.5336L45.4277 18.5129L44.353 20.4345L43.2782 18.5129L41.0007 18.5336L42.157 16.5522L41.0007 14.5707Z" fill="black"/>
<path d="M21.661 27.8983V27.2896C21.661 24.1196 20.7727 21.0244 19.0938 18.3375C17.1806 15.2749 14.3965 12.948 11.0433 11.6062L10.6979 11.468L9.93262 13.3836L10.2771 13.5208C13.2209 14.6987 15.6646 16.7423 17.3445 19.4302C18.8194 21.7902 19.598 24.5069 19.598 27.2896V27.8984L21.661 27.8983Z" fill="black"/>
<path d="M44.9063 46.591C42.8301 44.5138 40.0695 43.3709 37.133 43.3709H36.1016V45.4338H37.133C39.5178 45.4338 41.7604 46.3621 43.4475 48.0498L43.8012 48.4034C45.4879 50.0897 46.4163 52.3322 46.4163 54.7171H48.4792C48.4792 51.7806 47.3363 49.02 45.2591 46.9438L44.9063 46.591Z" fill="black"/>
<path d="M16.7195 13.3257L20.6299 11.1638L24.5403 13.3257L23.7957 8.75731L26.8961 5.57955L22.6054 4.92337L20.6299 0.715088L18.6545 4.92337L14.3638 5.57955L17.4642 8.75731L16.7195 13.3257ZM20.0552 6.79563L20.6299 5.57118L21.2045 6.79657L22.6155 7.01207L21.59 8.06335L21.8188 9.46591L20.6299 8.80697L19.4395 9.46499L19.6684 8.06243L18.6443 7.01115L20.0552 6.79563Z" fill="black"/>
<path d="M64.0289 38.5856L59.7382 37.9294L57.7627 33.722L55.7873 37.9303L51.4966 38.5865L54.597 41.7643L53.8524 46.3327L57.7628 44.1707L61.6732 46.3327L60.9286 41.7643L64.0289 38.5856ZM58.953 42.4711L57.7626 41.814L56.5722 42.472L56.8011 41.0694L55.7756 40.0182L57.1866 39.8027L57.7626 38.5782L58.3373 39.8036L59.7482 40.0191L58.7227 41.0704L58.953 42.4711Z" fill="black"/>
<path d="M22.9943 27.1686L24.4526 28.627L25.2335 27.846C26.9212 26.1602 27.8495 23.9177 27.8495 21.5328C27.8495 18.7377 26.5146 16.067 24.2785 14.3898L23.311 13.6637L22.0732 15.314L23.0407 16.0393C24.7601 17.3287 25.7865 19.3823 25.7865 21.5328C25.7865 23.367 25.0728 25.0915 23.7752 26.3882L22.9943 27.1686Z" fill="black"/>
<path d="M49.698 37.9738C47.8566 36.1328 45.4091 35.1188 42.8056 35.1188C40.202 35.1188 37.7546 36.1327 35.9131 37.9738L35.3716 38.5153L36.8299 39.9736L37.3714 39.4321C38.8228 37.9811 40.7528 37.1817 42.8056 37.1817C44.8584 37.1817 46.7882 37.9811 48.2392 39.4325L48.7808 39.9741L50.2391 38.5158L49.698 37.9738Z" fill="black"/>
<path d="M5.15723 6.23744H7.22017V9.33185H5.15723V6.23744Z" fill="black"/>
<path d="M1.08301 8.7797L2.5418 7.32091L4.72993 9.50904L3.27114 10.9678L1.08301 8.7797Z" fill="black"/>
<path d="M0 11.3948H3.09441V13.4577H0V11.3948Z" fill="black"/>
<path d="M1.0835 16.0736L3.27163 13.8854L4.73042 15.3442L2.54229 17.5323L1.0835 16.0736Z" fill="black"/>
<path d="M5.15723 15.5207H7.22017V18.6151H5.15723V15.5207Z" fill="black"/>
<path d="M7.64697 15.3439L9.10577 13.8851L11.2939 16.0732L9.83511 17.532L7.64697 15.3439Z" fill="black"/>
<path d="M7.64697 9.50869L9.83511 7.32056L11.2939 8.77935L9.10577 10.9675L7.64697 9.50869Z" fill="black"/>
<path d="M42.3408 54.1637L43.7996 52.7049L45.9877 54.8931L44.529 56.3519L42.3408 54.1637Z" fill="black"/>
<path d="M41.2588 56.7795H44.3532V58.8425H41.2588V56.7795Z" fill="black"/>
<path d="M42.3408 61.4583L44.529 59.2701L45.9877 60.7289L43.7996 62.9171L42.3408 61.4583Z" fill="black"/>
<path d="M46.416 60.9054H48.479V63.9998H46.416V60.9054Z" fill="black"/>
<path d="M48.9058 60.7286L50.3646 59.2698L52.5527 61.4579L51.0939 62.9167L48.9058 60.7286Z" fill="black"/>
<path d="M50.542 56.7795H53.6364V58.8425H50.542V56.7795Z" fill="black"/>
<path d="M48.9058 54.8934L51.0939 52.7053L52.5527 54.1641L50.3646 56.3522L48.9058 54.8934Z" fill="black"/>
</svg>
