<svg width="512" height="512" viewBox="0 0 512 512" fill="none" xmlns="http://www.w3.org/2000/svg">
<rect width="512" height="512" fill="#1F79F2"/>
<path d="M313.859 189.414C323.96 186.168 333.7 164.012 338.66 155.144C338.66 160.104 339.743 170.133 353.09 174.462C366.438 178.791 387.361 173.03 393.674 167.319V184.003C393.674 190.136 401.791 210.537 405.398 224.516C399.536 232.632 382.31 247.964 353.09 244.357C323.87 240.749 292.214 212.412 285.901 200.237C291.012 197.982 303.758 192.661 313.859 189.414Z" fill="#FCFCFC"/>
<path fill-rule="evenodd" clip-rule="evenodd" d="M361.415 114.395C356.307 121.411 352.204 131.929 347.913 145.253C339.008 172.904 322.017 187.897 313.621 192.095C312.28 192.765 310.183 193.619 307.501 194.71C294.033 200.188 265.829 211.662 244.669 236.106C233.757 248.711 213.056 264.078 192.051 277.994C176.125 288.545 159.749 298.438 146.752 305.912C147.76 306.06 148.578 306.183 149.071 306.261C154.05 307.047 159.357 307.891 164.745 308.746C184.913 311.95 206.219 315.335 215.709 316.618C231.329 318.728 256.335 315.357 279.262 299.352C296.595 287.251 297.741 269.676 296.364 262.914L305.201 261.114C307.131 270.587 305.331 292.152 284.424 306.747C259.553 324.11 232.251 327.954 214.502 325.555C211.649 325.17 207.749 324.598 203.147 323.9C203.343 324.143 203.537 324.387 203.731 324.632C204.326 325.381 204.923 326.146 205.537 326.932C206.622 328.323 207.759 329.779 209.024 331.332C212.939 336.137 217.431 341.028 222.535 344.369C238.517 354.831 254.383 355.4 275.184 356.145C276.244 356.183 277.317 356.222 278.403 356.262C280.318 356.333 282.041 356.096 284.112 355.811C284.921 355.7 285.784 355.581 286.733 355.47C300.351 353.884 311.615 350.843 322.538 346.419C323.435 346.055 324.332 345.694 325.228 345.333C336.152 340.936 347 336.568 357.532 328.353C368.257 319.987 378.065 307.94 385.65 295.465C393.254 282.957 398.388 270.407 400.06 261.208C403.48 242.398 400.089 222.937 393.927 205.334C391.891 199.517 390.78 190.472 390.126 181.396C389.514 172.894 389.278 163.906 389.186 156.581L379.663 147.059L386.04 140.682L396.261 150.902L396.38 150.954V124.48C396.38 121.968 395.872 117.219 393.49 113.095C391.267 109.248 387.272 105.643 379.374 105.079C371.809 104.538 366.308 107.673 361.415 114.395ZM398.291 161.634L405.398 164.744V124.48C405.398 121.13 404.778 114.606 401.299 108.584C397.66 102.285 391.057 96.8717 380.017 96.083C368.643 95.2706 360.39 100.479 354.123 109.088C348.07 117.403 343.606 129.206 339.329 142.488C331.098 168.046 315.622 181.011 309.588 184.028C308.64 184.502 306.977 185.17 304.744 186.067C292.015 191.18 260.765 203.733 237.85 230.203C227.839 241.768 208.107 256.539 187.07 270.475C166.169 284.322 144.452 297.042 130.864 304.508L119.321 310.851L131.565 312.793L102 325.037L104.068 333.699L151.379 330.095L194.408 327.513C195.021 328.2 195.764 329.099 196.666 330.237C197.175 330.878 197.733 331.593 198.328 332.355C199.457 333.801 200.72 335.418 202.032 337.029C206.088 342.007 211.291 347.788 217.596 351.915C235.742 363.794 254.001 364.431 274.253 365.138C275.517 365.183 276.789 365.227 278.069 365.274C279.645 365.333 281.243 365.231 282.745 365.074L279.262 415.782H296.364V365.074C306.718 363.616 311.27 360.148 320.027 357.024L322.883 416H339.329L333.7 351.915C344.47 347.586 351.564 344.445 363.079 335.464C374.9 326.244 385.384 313.264 393.356 300.149C401.31 287.067 406.998 273.463 408.933 262.821C412.728 241.948 408.905 220.826 402.44 202.354C400.846 197.8 399.778 189.86 399.122 180.748C398.663 174.377 398.42 167.686 398.291 161.634ZM148.919 315.367L131.549 322.561L150.767 321.097L175.626 319.605C171.515 318.954 167.346 318.291 163.231 317.638C158.32 316.858 153.486 316.09 148.919 315.367Z" fill="#FCFCFC"/>
<path d="M371.868 125.5C370.836 128.071 368.003 129.353 365.539 128.365C363.074 127.376 361.913 124.491 362.944 121.92C363.975 119.35 366.809 118.067 369.273 119.056C371.737 120.044 372.899 122.929 371.868 125.5Z" fill="#FCFCFC"/>
</svg>
