<svg id="eo1iermcbCF1" xmlns="http://www.w3.org/2000/svg" xmlns:xlink="http://www.w3.org/1999/xlink" viewBox="0 0 300 300" shape-rendering="geometricPrecision" text-rendering="geometricPrecision"><style><![CDATA[#eo1iermcbCF2_tr {animation: eo1iermcbCF2_tr__tr 4000ms linear infinite normal forwards}@keyframes eo1iermcbCF2_tr__tr { 0% {transform: translate(150px,150px) rotate(0deg)} 100% {transform: translate(150px,150px) rotate(360deg)}} #eo1iermcbCF63_to {animation: eo1iermcbCF63_to__to 4000ms linear infinite normal forwards}@keyframes eo1iermcbCF63_to__to { 0% {transform: translate(150px,150px);animation-timing-function: cubic-bezier(0.42,0,0.58,1)} 25% {transform: translate(154px,150px);animation-timing-function: cubic-bezier(0.42,0,0.58,1)} 50% {transform: translate(148.666667px,150px);animation-timing-function: cubic-bezier(0.42,0,0.58,1)} 75% {transform: translate(153.333333px,150px);animation-timing-function: cubic-bezier(0.42,0,0.58,1)} 100% {transform: translate(150px,150px)}}]]></style><g id="eo1iermcbCF2_tr" transform="translate(150,150) rotate(0)"><g transform="translate(-225.765007,-387.994995)"><path d="M216.38,275.85c-.11-.26-.24-.49-.4-.68s-.35-.35-.57-.48c-.22-.12-.46-.21-.72-.26s-.55-.06-.86-.03c-.58.06-1.07.26-1.48.59s-.7.79-.89,1.36-.24,1.26-.15,2.05c.08.79.27,1.45.57,1.98s.68.92,1.15,1.16s1.01.33,1.6.27c.54-.06,1-.2,1.36-.44.37-.23.63-.54.8-.92s.23-.81.17-1.29l.5.02-2.93.31-.19-1.81l4.75-.5.15,1.43c.11,1-.01,1.88-.36,2.64s-.87,1.37-1.57,1.84c-.7.46-1.52.75-2.48.85-1.06.11-2.02-.02-2.88-.41s-1.55-.99-2.1-1.81c-.54-.82-.88-1.83-1-3.03-.1-.92-.05-1.76.14-2.51s.5-1.4.93-1.96c.43-.55.95-1,1.57-1.33s1.3-.54,2.05-.61c.64-.07,1.25-.04,1.83.09.57.13,1.09.34,1.56.63s.86.66,1.18,1.1.55.94.69,1.49l-2.42.26Z" fill="#1f79f2"/><path d="M221.33,283.28l-.19-11.42l7.69-.12.03,1.99-5.28.09.04,2.72l4.88-.08.03,1.99-4.88.08.04,2.73l5.3-.09.03,1.99-7.69.12Z" fill="#1f79f2"/><path d="M231.02,273.81l.17-1.98l9.34.8-.17,1.98-3.48-.3-.81,9.39-2.38-.2.81-9.39-3.48-.3Z" fill="#1f79f2"/><path d="M252.14,278.16c.05-.45-.06-.83-.34-1.15s-.7-.54-1.26-.66c-.38-.08-.72-.1-1.01-.05s-.52.15-.7.31-.3.36-.35.6c-.05.2-.05.38.01.55s.16.33.3.47.31.28.51.4c.2.13.41.24.64.35l.95.46c.46.22.88.46,1.24.73s.67.57.91.9.4.69.49,1.09.08.83-.02,1.29c-.15.68-.46,1.23-.91,1.66-.45.42-1.03.7-1.74.83s-1.51.1-2.42-.1c-.9-.2-1.65-.51-2.26-.93s-1.03-.95-1.29-1.57-.3-1.34-.14-2.15l2.28.5c-.06.38-.02.71.12,1s.35.53.64.73.64.34,1.05.43c.4.09.76.11,1.08.06s.59-.16.8-.33.34-.39.4-.66c.06-.25.03-.48-.08-.68s-.29-.4-.55-.58-.58-.37-.96-.55l-1.15-.57c-.89-.44-1.55-.96-1.99-1.56-.44-.61-.56-1.32-.38-2.14.14-.68.46-1.23.93-1.65.48-.42,1.06-.71,1.77-.85.7-.14,1.46-.12,2.27.05.83.18,1.52.48,2.08.9s.95.92,1.19,1.5c.23.58.28,1.2.15,1.87l-2.26-.5Z" fill="#1f79f2"/><path d="M256.6,277.9l.61-1.89l8.92,2.89-.61,1.89-3.33-1.08-2.91,8.97-2.27-.74l2.91-8.97-3.32-1.07Z" fill="#1f79f2"/><path d="M264.33,290.49l-2.38-1.02l8.12-8.94l2.86,1.23-.88,12.05-2.38-1.02.84-9.22-.08-.04-6.1,6.96Zm1.62-4.19l5.62,2.41-.74,1.73-5.62-2.41.74-1.73Z" fill="#1f79f2"/><path d="M273,294.34l5.55-9.98l3.94,2.19c.75.42,1.32.91,1.71,1.48.39.56.58,1.17.59,1.82s-.17,1.3-.54,1.96-.83,1.15-1.38,1.47-1.17.45-1.85.4-1.41-.28-2.17-.71l-2.64-1.47.94-1.7l2.3,1.28c.4.22.77.35,1.1.39s.62-.02.87-.17.47-.39.65-.71c.18-.33.27-.65.27-.95-.01-.3-.11-.58-.31-.85s-.51-.51-.91-.74l-1.42-.79-4.59,8.25-2.11-1.17Zm7.91-1.55l-.04,5.92-2.33-1.29.1-5.89l2.27,1.26Z" fill="#1f79f2"/><path d="M286.73,291.28l1.13-1.64l7.72,5.33-1.13,1.64-2.88-1.99-5.35,7.76-1.96-1.36l5.35-7.76-2.88-1.98Z" fill="#1f79f2"/><path d="M290.1,305.18l7.33-8.75l5.9,4.94-1.28,1.53-4.05-3.39-1.75,2.09l3.74,3.14-1.28,1.53-3.74-3.14-1.75,2.09l4.06,3.4-1.28,1.53-5.9-4.97Z" fill="#1f79f2"/><path d="M300.07,314.1l-2.84-2.89l8.15-8l2.86,2.91c.8.82,1.33,1.68,1.59,2.59s.24,1.82-.05,2.74-.86,1.79-1.71,2.62-1.73,1.39-2.66,1.67c-.92.28-1.84.28-2.75.01-.92-.27-1.78-.82-2.59-1.65Zm.33-2.62l1.07,1.09c.5.51,1.01.85,1.54,1.02.52.17,1.06.16,1.62-.04s1.14-.6,1.75-1.19c.6-.59,1.01-1.16,1.22-1.71s.23-1.09.07-1.61-.49-1.04-.99-1.55l-1.08-1.1-5.2,5.09Z" fill="#1f79f2"/><path d="M317.98,323.45c.17-.22.3-.46.39-.69.09-.24.13-.48.12-.73s-.05-.5-.14-.76c-.09-.25-.23-.51-.41-.76-.35-.47-.77-.8-1.26-.98s-1.04-.21-1.62-.08c-.59.13-1.21.43-1.85.9s-1.12.97-1.42,1.49c-.31.53-.45,1.05-.42,1.58s.22,1.04.58,1.52c.32.44.68.76,1.07.96s.79.27,1.2.23c.41-.05.81-.21,1.2-.5l.23.44-1.74-2.37l1.46-1.08l2.83,3.85-1.16.85c-.81.59-1.63.94-2.46,1.02-.83.09-1.62-.06-2.38-.42-.75-.37-1.42-.94-1.98-1.71-.63-.86-1-1.76-1.1-2.69s.07-1.84.51-2.72s1.14-1.68,2.11-2.4c.75-.55,1.49-.93,2.24-1.14.74-.21,1.46-.27,2.16-.18s1.34.32,1.94.69s1.12.85,1.57,1.46c.38.52.66,1.06.84,1.62s.26,1.12.24,1.67-.13,1.08-.35,1.58c-.21.5-.53.95-.94,1.35l-1.46-2Z" fill="#1f79f2"/><path d="M314.06,331.4l9.82-5.82l3.92,6.62-1.71,1.01-2.69-4.54-2.34,1.39l2.49,4.2-1.71,1.01-2.49-4.2-2.35,1.39l2.7,4.56-1.71,1.01-3.93-6.63Z" fill="#1f79f2"/><path d="M327.12,335.06l1.8-.85l4,8.48-1.8.85-1.49-3.16-8.53,4.02-1.02-2.16l8.53-4.02-1.49-3.16Z" fill="#1f79f2"/><path d="M333.97,355.5c.42-.18.69-.47.82-.87s.11-.87-.06-1.43c-.12-.38-.27-.68-.46-.9s-.39-.38-.62-.45c-.23-.08-.46-.08-.69,0-.2.06-.35.15-.47.29s-.2.3-.25.49-.08.41-.09.64s0,.48.02.73l.08,1.05c.04.51.04.99-.01,1.44s-.16.87-.32,1.24c-.17.37-.4.7-.7.97s-.67.48-1.13.63c-.67.21-1.3.22-1.89.05s-1.12-.54-1.59-1.08-.84-1.26-1.13-2.14c-.28-.88-.39-1.69-.33-2.42.06-.74.3-1.37.71-1.9s1.01-.93,1.78-1.2l.71,2.22c-.36.14-.63.34-.81.61-.18.26-.29.57-.31.92s.03.73.16,1.12c.12.39.29.71.5.96s.43.43.69.52c.25.09.51.1.77.02.24-.08.43-.22.55-.41.12-.2.2-.45.22-.76.03-.31.03-.68,0-1.11l-.08-1.28c-.07-.99.05-1.82.35-2.51.3-.68.86-1.15,1.66-1.4.66-.21,1.29-.22,1.89-.02.61.2,1.15.56,1.62,1.1s.84,1.2,1.09,1.99c.26.81.35,1.56.26,2.25s-.32,1.29-.7,1.78-.9.85-1.54,1.07l-.7-2.21Z" fill="#1f79f2"/><path d="M336.44,359.23l1.95-.42l1.98,9.17-1.95.42-.74-3.42-9.22,1.99-.5-2.33l9.22-1.99-.74-3.42Z" fill="#1f79f2"/><path d="M329.43,372.24l-.31-2.57l11.81,2.52.38,3.09-10.85,5.3-.31-2.57l8.4-3.91-.01-.09-9.11-1.77Zm4.43-.71l.74,6.06-1.87.23-.74-6.06l1.87-.23Z" fill="#1f79f2"/><path d="M330.46,381.69l11.42-.23.09,4.5c.02.86-.12,1.6-.42,2.22-.29.62-.72,1.09-1.27,1.43-.55.33-1.21.51-1.96.52-.76.02-1.41-.13-1.96-.45s-.98-.78-1.28-1.39-.46-1.36-.48-2.23l-.06-3.02l1.94-.04.05,2.63c.01.46.08.84.21,1.14s.33.53.58.67c.26.15.57.21.95.21.38-.01.7-.09.95-.25s.45-.39.58-.7.19-.7.18-1.16l-.03-1.63-9.44.19-.05-2.41Zm5.32,6.06l-5.14,2.94-.05-2.66l5.14-2.88.05,2.6Z" fill="#1f79f2"/><path d="M340.02,391.99l1.99.15-.7,9.35-1.99-.15.26-3.49-9.4-.71.18-2.38l9.4.71.26-3.48Z" fill="#1f79f2"/><path d="M329.72,401.9l11.26,1.91-1.29,7.59-1.96-.33.88-5.21-2.68-.46-.82,4.82-1.96-.33.82-4.82-2.69-.46-.89,5.23-1.96-.33l1.29-7.61Z" fill="#1f79f2"/><path d="M327.05,415.03l1.07-3.91l11.01,3.01-1.08,3.94c-.3,1.11-.78,2-1.44,2.68s-1.46,1.12-2.39,1.33c-.94.21-1.98.16-3.12-.16-1.15-.31-2.08-.8-2.78-1.46-.71-.66-1.17-1.45-1.39-2.37-.23-.92-.19-1.94.12-3.06Zm2.42-1.03l-.4,1.48c-.19.69-.22,1.3-.11,1.84.12.54.4,1,.85,1.38s1.09.68,1.91.91c.81.22,1.51.29,2.09.19s1.06-.35,1.43-.75.65-.95.84-1.64l.41-1.48-7.02-1.93Z" fill="#1f79f2"/><path d="M327.98,435.2c.28.04.54.03.79-.01s.48-.13.7-.26.41-.29.58-.5.32-.45.45-.74c.23-.54.3-1.06.21-1.58s-.34-1-.75-1.45-.98-.83-1.71-1.14c-.73-.32-1.4-.48-2-.48-.61,0-1.13.14-1.58.43-.44.29-.79.71-1.03,1.26-.22.5-.31.97-.29,1.4s.16.82.4,1.15.59.59,1.04.79l-.26.42l1.17-2.7l1.67.72-1.91,4.38-1.32-.57c-.92-.4-1.63-.94-2.12-1.61-.49-.68-.77-1.43-.83-2.27s.1-1.7.48-2.57c.43-.98,1.02-1.75,1.78-2.3s1.63-.86,2.61-.93c.98-.06,2.03.14,3.13.62.85.37,1.55.82,2.11,1.36s.97,1.13,1.24,1.78.4,1.32.38,2.02-.17,1.39-.47,2.09c-.26.59-.58,1.11-.98,1.54s-.83.79-1.32,1.05-1,.42-1.54.49c-.54.06-1.09.02-1.63-.13l1-2.26Z" fill="#1f79f2"/><path d="M319.13,435.79l9.96,5.58-3.76,6.71-1.74-.97l2.58-4.61-2.37-1.33-2.39,4.26-1.74-.97l2.39-4.26-2.38-1.33-2.59,4.63-1.74-.97l3.78-6.74Z" fill="#1f79f2"/><path d="M322.52,448.92l1.64,1.13-5.33,7.72-1.64-1.13l1.99-2.88-7.76-5.35l1.35-1.96l7.76,5.35l1.99-2.88Z" fill="#1f79f2"/><path d="M308.28,465.13c.36.27.75.36,1.16.28s.81-.34,1.2-.77c.26-.29.45-.58.55-.85s.13-.53.08-.77-.16-.44-.34-.6c-.15-.14-.31-.23-.48-.26-.18-.03-.36-.02-.56.03s-.39.13-.6.24-.41.24-.62.39l-.87.6c-.42.29-.83.53-1.25.72-.42.18-.83.3-1.23.34-.41.04-.8.01-1.19-.11s-.76-.34-1.11-.66c-.52-.47-.85-1.01-.99-1.61s-.1-1.24.13-1.92.66-1.36,1.28-2.05c.62-.68,1.26-1.19,1.93-1.5.67-.32,1.33-.43,2-.34s1.31.4,1.93.94l-1.56,1.73c-.3-.24-.61-.37-.93-.39s-.64.04-.95.2c-.32.16-.61.39-.89.7-.27.3-.47.61-.58.91s-.15.59-.1.86.17.49.37.68c.19.17.4.26.63.26.23.01.49-.06.77-.19s.6-.32.96-.56l1.06-.71c.82-.56,1.6-.88,2.34-.96s1.43.16,2.05.73c.52.46.84,1,.97,1.62s.09,1.28-.13,1.96-.61,1.33-1.17,1.95c-.57.63-1.17,1.08-1.81,1.36s-1.27.37-1.89.29-1.19-.35-1.7-.8l1.54-1.74Z" fill="#1f79f2"/><path d="M306.32,469.11l1.34,1.47-6.92,6.33-1.34-1.47l2.58-2.36-6.36-6.96l1.76-1.61l6.36,6.96l2.58-2.36Z" fill="#1f79f2"/><path d="M291.54,469.63l2.06-1.57l3.79,11.47-2.47,1.89-10.05-6.7l2.06-1.57l7.61,5.27.07-.05-3.07-8.74Zm2.85,3.48l-4.86,3.7-1.14-1.5l4.86-3.7l1.14,1.5Z" fill="#1f79f2"/><path d="M281.39,482.93l-5.13-2.95l2.27-1.39l5.08,2.98-2.22,1.36Zm2.54-7.65l5.96,9.74-3.84,2.35c-.74.45-1.44.7-2.13.76s-1.31-.07-1.87-.38c-.57-.31-1.05-.79-1.44-1.43-.4-.65-.6-1.29-.6-1.92s.18-1.24.56-1.81.94-1.08,1.69-1.54l2.57-1.57l1.01,1.65-2.24,1.37c-.39.24-.69.49-.88.76s-.29.55-.29.84.1.6.3.92.43.56.69.7.56.19.9.15c.33-.04.7-.19,1.09-.43l1.39-.85-4.93-8.06l2.06-1.25Z" fill="#1f79f2"/><path d="M279.83,488.74l.87,1.79-8.44,4.1-.87-1.79l3.14-1.53-4.12-8.48l2.15-1.04l4.12,8.48l3.15-1.53Z" fill="#1f79f2"/><path d="M266.08,484.83l4,10.69-7.21,2.7-.7-1.86l4.95-1.85-.95-2.55-4.57,1.71-.7-1.86l4.57-1.71-.96-2.55-4.97,1.86-.7-1.86l7.24-2.72Z" fill="#1f79f2"/><path d="M253.4,489.11l3.91-1.04l2.93,11.04-3.94,1.05c-1.11.29-2.12.33-3.04.1s-1.7-.7-2.35-1.4c-.65-.71-1.13-1.63-1.43-2.78-.31-1.15-.35-2.2-.14-3.14s.67-1.74,1.35-2.4s1.59-1.14,2.71-1.43Zm2.11,1.58l-1.48.39c-.69.18-1.24.46-1.65.83s-.66.85-.76,1.43-.04,1.29.18,2.11.51,1.45.89,1.9.83.74,1.37.86s1.15.09,1.84-.1l1.49-.39-1.88-7.03Z" fill="#1f79f2"/><path d="M236.43,500.04c.11.26.25.49.41.68s.36.35.57.47.46.21.73.25.55.05.86.02c.58-.07,1.07-.27,1.47-.61s.7-.8.88-1.37c.18-.58.22-1.26.13-2.05s-.29-1.45-.6-1.97c-.3-.53-.69-.91-1.17-1.15s-1.01-.32-1.61-.25c-.54.06-1,.21-1.36.45s-.63.55-.79.93-.22.81-.16,1.29l-.5-.01l2.92-.34.21,1.8-4.75.56-.17-1.43c-.12-1-.01-1.88.33-2.64s.85-1.38,1.55-1.85c.69-.47,1.52-.76,2.47-.88c1.06-.12,2.02,0,2.88.38s1.56.97,2.12,1.79c.55.82.9,1.82,1.04,3.02.11.92.07,1.76-.11,2.51s-.49,1.41-.91,1.97-.94,1.01-1.55,1.34c-.61.34-1.29.55-2.04.64-.64.08-1.25.05-1.83-.07s-1.1-.33-1.57-.62-.87-.65-1.2-1.09c-.33-.43-.56-.93-.71-1.48l2.46-.29Z" fill="#1f79f2"/><path d="M231.44,492.7l.2,11.42-7.69.13-.03-1.99l5.28-.09-.05-2.72-4.88.08-.03-1.99l4.88-.08-.05-2.73-5.3.09-.03-1.99l7.7-.13Z" fill="#1f79f2"/><path d="M221.82,502.24l-.15,1.99-9.35-.7.15-1.99l3.49.26.7-9.4l2.38.18-.7,9.4l3.48.26Z" fill="#1f79f2"/><path d="M200.67,498.13c-.05.45.07.83.35,1.14s.7.53,1.27.65c.39.08.72.09,1.01.04s.52-.16.7-.32.29-.36.34-.6c.05-.2.04-.38-.02-.55s-.16-.32-.3-.46-.31-.27-.51-.4c-.2-.12-.41-.24-.65-.34l-.95-.45c-.46-.21-.88-.45-1.25-.72s-.68-.56-.92-.89-.41-.69-.5-1.08-.09-.83,0-1.29c.15-.68.44-1.24.89-1.67s1.02-.71,1.73-.85c.7-.14,1.51-.12,2.42.07.9.19,1.66.49,2.27.91s1.04.93,1.3,1.56c.26.62.32,1.34.17,2.14l-2.29-.48c.05-.38.01-.71-.13-1s-.36-.53-.65-.72-.65-.33-1.06-.42c-.4-.08-.76-.1-1.08-.04s-.58.17-.79.34-.34.39-.39.66c-.05.25-.02.48.09.68s.3.39.55.57c.26.18.58.36.97.54l1.15.56c.89.43,1.56.94,2.01,1.54s.58,1.31.4,2.14c-.14.68-.44,1.23-.91,1.66s-1.06.72-1.76.87-1.46.14-2.27-.03c-.83-.17-1.53-.47-2.09-.88s-.96-.91-1.2-1.49-.3-1.2-.17-1.87l2.27.48Z" fill="#1f79f2"/><path d="M196.22,498.44l-.59,1.9-8.95-2.79.59-1.9l3.34,1.04l2.81-9l2.28.71-2.81,9l3.33,1.04Z" fill="#1f79f2"/><path d="M188.35,485.94l2.39.99-8.02,9.04-2.87-1.19.74-12.05l2.39.99-.73,9.23.08.03l6.02-7.04Zm-1.57,4.21l-5.64-2.34.72-1.74l5.64,2.34-.72,1.74Z" fill="#1f79f2"/><path d="M179.62,482.18l-5.44,10.04-3.96-2.15c-.76-.41-1.33-.9-1.73-1.46s-.6-1.16-.61-1.81c-.02-.65.16-1.3.51-1.96.36-.67.82-1.16,1.36-1.48.55-.32,1.16-.46,1.84-.42s1.41.27,2.18.69l2.65,1.44-.92,1.71-2.31-1.25c-.41-.22-.77-.35-1.1-.38s-.62.02-.87.17-.47.39-.65.72-.27.65-.26.95.12.58.32.85.51.51.92.73l1.43.77l4.5-8.3l2.14,1.14Zm-7.9,1.63l-.02-5.92l2.34,1.27-.03,5.89-2.29-1.24Z" fill="#1f79f2"/><path d="M165.92,485.39l-1.11,1.65-7.78-5.24l1.11-1.65l2.9,1.95l5.27-7.82l1.98,1.33-5.27,7.82l2.9,1.96Z" fill="#1f79f2"/><path d="M162.39,471.52l-7.23,8.83-5.95-4.88l1.26-1.54l4.08,3.35l1.72-2.11-3.78-3.09l1.26-1.54l3.78,3.09l1.73-2.11-4.1-3.36l1.26-1.54l5.97,4.9Z" fill="#1f79f2"/><path d="M152.33,462.73l2.87,2.86-8.06,8.09-2.89-2.88c-.81-.81-1.35-1.67-1.62-2.58s-.26-1.82.03-2.74c.28-.92.84-1.8,1.68-2.64s1.72-1.41,2.64-1.7s1.84-.3,2.75-.04c.91.27,1.78.81,2.6,1.63Zm-.3,2.62l-1.09-1.08c-.51-.5-1.02-.84-1.55-1s-1.07-.14-1.62.06c-.55.21-1.13.61-1.73,1.21s-.99,1.17-1.2,1.73c-.2.55-.22,1.09-.05,1.61s.5,1.04,1.01,1.54l1.09,1.09l5.14-5.16Z" fill="#1f79f2"/><path d="M134.32,453.59c-.17.23-.3.46-.38.7s-.12.48-.12.73.05.5.15.76c.09.25.23.5.42.75.35.47.77.79,1.27.96.5.18,1.04.2,1.63.06s1.2-.44,1.84-.92s1.1-.98,1.4-1.51.43-1.06.4-1.59-.23-1.03-.59-1.51c-.33-.44-.69-.75-1.08-.94s-.79-.26-1.2-.21-.81.22-1.2.51l-.24-.44l1.77,2.35-1.45,1.09-2.88-3.82l1.15-.87c.8-.6,1.62-.95,2.45-1.05s1.62.04,2.38.4s1.43.92,2,1.69c.64.85,1.02,1.75,1.13,2.68s-.05,1.84-.48,2.73-1.12,1.69-2.08,2.42c-.74.56-1.48.95-2.22,1.17s-1.46.29-2.16.21-1.35-.31-1.95-.66c-.6-.36-1.13-.84-1.58-1.44-.39-.52-.68-1.05-.86-1.61-.19-.56-.27-1.11-.26-1.67.01-.55.12-1.08.33-1.58s.52-.96.92-1.36l1.49,1.97Z" fill="#1f79f2"/><path d="M138.14,445.58l-9.76,5.93-3.99-6.58l1.7-1.03l2.74,4.51l2.33-1.41-2.54-4.17l1.7-1.03l2.54,4.17l2.33-1.42-2.75-4.53l1.7-1.03l4,6.59Z" fill="#1f79f2"/><path d="M125.04,442.05l-1.79.87-4.1-8.44l1.79-.87l1.53,3.14l8.48-4.12l1.04,2.15-8.48,4.12l1.53,3.15Z" fill="#1f79f2"/><path d="M117.96,421.7c-.41.18-.68.48-.81.88s-.1.88.08,1.42c.12.37.28.67.47.9s.4.37.63.45.46.07.69,0c.2-.06.35-.16.47-.29s.2-.3.25-.5.08-.41.09-.64s0-.48-.03-.73l-.09-1.05c-.05-.51-.05-.99-.01-1.44s.15-.87.31-1.24c.16-.38.39-.7.69-.98s.67-.49,1.12-.65c.66-.22,1.29-.24,1.89-.07s1.13.53,1.6,1.06c.47.54.86,1.25,1.15,2.13s.41,1.68.36,2.42-.28,1.37-.69,1.91-1,.94-1.77,1.22l-.74-2.22c.35-.15.62-.35.8-.62s.28-.57.3-.93c.02-.35-.04-.73-.17-1.12s-.3-.71-.51-.96-.44-.42-.69-.51-.51-.09-.77-.01c-.24.08-.42.22-.54.42s-.19.45-.22.76-.02.68.02,1.11l.1,1.28c.08.99-.03,1.82-.32,2.51-.3.69-.85,1.16-1.65,1.42-.65.22-1.29.24-1.89.05-.61-.19-1.15-.55-1.63-1.08s-.85-1.19-1.12-1.98c-.27-.8-.36-1.55-.29-2.25.08-.69.3-1.29.68-1.79s.89-.86,1.53-1.08l.71,2.2Z" fill="#1f79f2"/><path d="M115.46,418.01l-1.94.44-2.08-9.14l1.94-.44.78,3.41l9.19-2.09.53,2.33-9.19,2.09.77,3.4Z" fill="#1f79f2"/><path d="M122.32,404.92l.34,2.56-11.84-2.39-.41-3.08l10.79-5.42.34,2.56-8.35,4l.01.09l9.12,1.68Zm-4.43.76l-.81-6.06l1.87-.25.81,6.06-1.87.25Z" fill="#1f79f2"/><path d="M121.18,395.49l-11.41.36-.14-4.5c-.03-.86.1-1.6.39-2.22s.71-1.1,1.25-1.44c.55-.34,1.2-.52,1.95-.54.76-.02,1.41.12,1.97.43.55.31.99.77,1.3,1.38s.48,1.35.5,2.23l.09,3.01-1.94.06-.08-2.62c-.01-.46-.09-.84-.23-1.14s-.33-.52-.59-.67-.57-.21-.95-.2-.7.1-.95.26-.45.39-.57.7c-.13.31-.18.7-.17,1.16l.05,1.63l9.44-.29.09,2.4Zm-5.38-6l5.1-3l.08,2.66-5.11,2.94-.07-2.6Z" fill="#1f79f2"/><path d="M111.51,385.31l-1.99-.13.6-9.36l1.99.13-.22,3.49l9.41.6-.15,2.38-9.41-.6-.23,3.49Z" fill="#1f79f2"/><path d="M121.7,375.24l-11.28-1.79l1.2-7.6l1.97.31-.83,5.21l2.69.43.76-4.82l1.97.31-.76,4.82l2.69.43.83-5.24l1.97.31-1.21,7.63Z" fill="#1f79f2"/><path d="M124.22,362.11l-1.02,3.92-11.05-2.88l1.03-3.95c.29-1.11.76-2.01,1.41-2.7s1.44-1.14,2.38-1.36s1.98-.18,3.13.12s2.08.77,2.8,1.42c.71.65,1.19,1.44,1.42,2.36.22.92.19,1.95-.1,3.07Zm-2.41,1.06l.39-1.48c.18-.69.21-1.3.09-1.84s-.41-.99-.87-1.37c-.46-.37-1.1-.67-1.92-.88s-1.52-.27-2.1-.16-1.05.36-1.42.77-.64.96-.82,1.65l-.39,1.49l7.04,1.82Z" fill="#1f79f2"/><path d="M123.06,341.97c-.28-.03-.54-.03-.79.02s-.48.14-.69.27-.41.3-.58.51-.32.46-.44.74c-.23.54-.29,1.07-.2,1.58.1.52.35,1,.76,1.44s.99.81,1.72,1.12s1.4.46,2.01.45s1.13-.16,1.57-.45.78-.72,1.01-1.27c.21-.5.3-.97.27-1.41-.03-.43-.17-.81-.42-1.14s-.6-.59-1.05-.78l.26-.42-1.14,2.71-1.68-.71l1.85-4.4l1.33.56c.93.39,1.64.92,2.14,1.59s.78,1.42.85,2.26-.08,1.7-.45,2.58c-.42.99-1,1.76-1.75,2.32s-1.62.88-2.6.96-2.03-.12-3.14-.59c-.85-.36-1.56-.8-2.13-1.33s-.99-1.12-1.26-1.76-.41-1.32-.4-2.02.16-1.4.45-2.09c.25-.6.57-1.11.96-1.56.39-.44.83-.79,1.31-1.06s1-.44,1.54-.51s1.09-.03,1.64.11l-.95,2.28Z" fill="#1f79f2"/><path d="M131.9,341.25l-10.02-5.47l3.68-6.75l1.75.95-2.53,4.64l2.39,1.3l2.34-4.29l1.75.95-2.34,4.29l2.39,1.31l2.54-4.65l1.75.95-3.7,6.77Z" fill="#1f79f2"/><path d="M128.38,328.15l-1.65-1.11l5.24-7.78l1.65,1.11-1.95,2.9l7.82,5.27-1.33,1.98-7.82-5.27-1.96,2.9Z" fill="#1f79f2"/><path d="M142.43,311.8c-.37-.26-.76-.35-1.17-.26s-.81.35-1.19.79c-.26.3-.44.58-.54.86s-.12.53-.07.77.17.43.35.6c.15.14.31.23.49.26s.36.02.55-.03.39-.14.6-.25.41-.24.62-.39l.86-.61c.41-.3.83-.54,1.24-.73s.82-.31,1.23-.36.8-.02,1.19.1.76.33,1.12.64c.52.47.86,1,1.01,1.6s.11,1.24-.11,1.92c-.23.68-.65,1.37-1.26,2.07-.61.69-1.25,1.2-1.91,1.52s-1.33.45-2,.36c-.67-.08-1.32-.39-1.95-.92l1.55-1.75c.3.23.62.36.94.38s.64-.05.95-.21.61-.4.88-.71.46-.61.57-.92.14-.59.09-.86-.18-.49-.38-.67c-.19-.17-.4-.26-.63-.26s-.49.06-.77.2c-.28.13-.6.33-.95.57l-1.06.73c-.81.57-1.59.9-2.33.98-.74.09-1.43-.15-2.06-.71-.52-.45-.85-.99-.99-1.61s-.1-1.27.11-1.96c.21-.68.6-1.34,1.15-1.96.56-.64,1.16-1.1,1.8-1.38s1.27-.39,1.89-.31s1.19.34,1.71.78l-1.53,1.73Z" fill="#1f79f2"/><path d="M144.34,307.8l-1.36-1.45l6.85-6.41l1.36,1.45-2.55,2.39l6.44,6.88-1.74,1.63-6.44-6.88-2.56,2.39Z" fill="#1f79f2"/><path d="M159.11,307.11l-2.04,1.59-3.91-11.43l2.45-1.91l10.13,6.58-2.04,1.59-7.67-5.19-.07.05l3.15,8.72Zm-2.89-3.44l4.82-3.76l1.16,1.49-4.82,3.76-1.16-1.49Z" fill="#1f79f2"/><path d="M166.67,301.38l-6.07-9.67l3.82-2.39c.73-.46,1.44-.72,2.12-.79.68-.06,1.31.05,1.88.36.57.3,1.06.77,1.46,1.41s.61,1.28.62,1.92c.01.63-.17,1.24-.54,1.81s-.93,1.09-1.67,1.56l-2.56,1.6-1.03-1.64l2.22-1.4c.39-.25.68-.5.87-.77s.28-.55.28-.84c-.01-.29-.11-.6-.31-.92s-.44-.55-.7-.69c-.27-.14-.56-.19-.9-.14-.33.05-.69.2-1.09.44l-1.38.87l5.02,8-2.04,1.28Zm2.46-7.68l5.16,2.89-2.26,1.42-5.11-2.93l2.21-1.38Z" fill="#1f79f2"/><path d="M170.61,287.87l-.89-1.78l8.39-4.19.89,1.78-3.13,1.56l4.21,8.43-2.13,1.07-4.21-8.43-3.13,1.56Z" fill="#1f79f2"/><path d="M184.4,291.63l-4.12-10.65l7.17-2.78.72,1.86-4.92,1.91.98,2.54l4.55-1.76.72,1.86-4.55,1.76.98,2.54l4.94-1.91.72,1.86-7.19,2.77Z" fill="#1f79f2"/><path d="M197.04,287.21l-3.9,1.08-3.06-11l3.93-1.09c1.11-.31,2.12-.35,3.04-.14.92.22,1.71.68,2.37,1.38s1.15,1.62,1.46,2.76c.32,1.15.38,2.19.17,3.13-.2.94-.65,1.75-1.33,2.41-.67.67-1.57,1.16-2.68,1.47Zm-2.13-1.56l1.48-.41c.69-.19,1.23-.47,1.64-.85.4-.38.65-.86.75-1.44.09-.58.03-1.29-.2-2.11-.23-.81-.53-1.44-.91-1.89s-.84-.73-1.38-.84-1.15-.07-1.84.12l-1.48.41l1.94,7.01Z" fill="#1f79f2"/></g></g><g id="eo1iermcbCF63_to" transform="translate(150,150)"><path d="M16.172,11L10.808,5.636l1.414-1.414L20,12l-7.778,7.778-1.414-1.414L16.172,13L4,13v-2h12.172Z" transform="scale(3.4475,3.4475) translate(-12,-12)" fill="#1f79f2"/></g></svg>