<svg width="644" height="80" viewBox="0 0 644 80" fill="none" xmlns="http://www.w3.org/2000/svg">
<path d="M52.965 23.3536C55.4902 22.5419 57.9253 17.003 59.1653 14.7859C59.1653 16.0259 59.4359 18.5333 62.7728 19.6156C66.1097 20.6978 71.3405 19.2576 72.9187 17.8297V22.0008C72.9187 23.534 74.9479 28.6342 75.8498 32.1289C74.3843 34.1581 70.0779 37.991 62.7728 37.0892C55.4677 36.1873 47.5538 29.103 45.9756 26.0592C47.2532 25.4955 50.4398 24.1653 52.965 23.3536Z" fill="#1F79F2"/>
<path fill-rule="evenodd" clip-rule="evenodd" d="M64.8536 4.59882C63.5768 6.35279 62.5509 8.98232 61.4783 12.3131C59.2521 19.226 55.0042 22.9743 52.9053 24.0237C52.57 24.1914 52.0457 24.4047 51.3753 24.6774C48.0083 26.0471 40.9573 28.9156 35.6672 35.0265C32.9392 38.1778 27.7639 42.0195 22.5127 45.4984C18.5312 48.1361 14.4372 50.6096 11.1881 52.4779C11.44 52.5151 11.6444 52.5457 11.7678 52.5652C13.0125 52.7619 14.3392 52.9726 15.6863 53.1866C20.7283 53.9876 26.0546 54.8338 28.4273 55.1544C32.3322 55.6821 38.5838 54.8393 44.3155 50.8379C48.6487 47.8128 48.9353 43.4189 48.591 41.7286L50.8002 41.2786C51.2826 43.6467 50.8327 49.0379 45.6061 52.6866C39.3881 57.0275 32.5627 57.9884 28.1254 57.3888C27.4122 57.2924 26.4373 57.1494 25.2868 56.975C25.3357 57.0358 25.3843 57.0968 25.4328 57.1579C25.5815 57.3453 25.7307 57.5366 25.8841 57.7331C26.1555 58.0808 26.4397 58.4449 26.756 58.8331C27.7346 60.0342 28.8577 61.2569 30.1339 62.0923C34.1292 64.7077 38.0957 64.8499 43.2961 65.0363C43.561 65.0458 43.8292 65.0554 44.1007 65.0655C44.5794 65.0833 45.0102 65.024 45.5279 64.9528C45.7304 64.9249 45.9461 64.8952 46.1832 64.8676C49.5879 64.4711 52.4039 63.7107 55.1345 62.6047C55.3588 62.5138 55.583 62.4236 55.8071 62.3333C58.5379 61.2339 61.2501 60.1419 63.883 58.0883C66.5643 55.9968 69.0164 52.9851 70.9125 49.8661C72.8135 46.7392 74.0969 43.6016 74.515 41.3019C75.37 36.5996 74.5221 31.7342 72.9819 27.3334C72.4729 25.8792 72.195 23.618 72.0316 21.349C71.8785 19.2234 71.8196 16.9765 71.7965 15.1454L69.4158 12.7647L71.0101 11.1704L73.5653 13.7256L73.595 13.7386V7.12006C73.595 6.49199 73.4681 5.30477 72.8725 4.27387C72.3167 3.312 71.3181 2.41073 69.3435 2.26969C67.4522 2.13459 66.0771 2.91815 64.8536 4.59882ZM74.0727 16.4086L75.8496 17.186V7.12006C75.8496 6.28261 75.6946 4.65151 74.8247 3.14592C73.9149 1.57131 72.2644 0.217918 69.5042 0.0207609C66.6607 -0.182341 64.5975 1.11966 63.0308 3.2719C61.5174 5.35085 60.4014 8.30159 59.3322 11.622C57.2745 18.0116 53.4056 21.2528 51.897 22.0071C51.66 22.1256 51.2443 22.2926 50.686 22.5168C47.5038 23.795 39.6912 26.9332 33.9625 33.5508C31.4597 36.442 26.5266 40.1346 21.2674 43.6188C16.0421 47.0806 10.613 50.2606 7.21612 52.127L4.33035 53.7126L7.39133 54.1982L0 57.2592L0.516989 59.4248L12.3448 58.5237L23.102 57.8782C23.2552 58.0499 23.4409 58.2749 23.6665 58.5592C23.7937 58.7195 23.9332 58.8982 24.082 59.0887C24.3643 59.4503 24.68 59.8545 25.0081 60.2573C26.022 61.5017 27.3227 62.9469 28.899 63.9788C33.4356 66.9484 38.0003 67.1078 43.0631 67.2846C43.3792 67.2957 43.6972 67.3068 44.0172 67.3186C44.4112 67.3332 44.8108 67.3077 45.1863 67.2686L44.3155 79.9455H48.591V67.2686C51.1794 66.904 52.3176 66.0371 54.5069 65.2561L55.2208 80H59.3322L57.9251 63.9788C60.6175 62.8965 62.3911 62.1114 65.2697 59.8661C68.225 57.5609 70.8459 54.316 72.8391 51.0374C74.8274 47.7667 76.2496 44.3658 76.7333 41.7052C77.6821 36.487 76.7262 31.2065 75.1099 26.5886C74.7114 25.45 74.4444 23.465 74.2804 21.1871C74.1657 19.5942 74.105 17.9215 74.0727 16.4086ZM11.7297 54.8418L7.38731 56.6402L12.1917 56.2741L18.4065 55.9013C17.3787 55.7385 16.3364 55.5729 15.3076 55.4094C14.08 55.2144 12.8716 55.0224 11.7297 54.8418Z" fill="#1F79F2"/>
<path d="M67.4667 7.37504C67.2088 8.01771 66.5004 8.33835 65.8844 8.09121C65.2684 7.84408 64.978 7.12274 65.2358 6.48007C65.4936 5.8374 66.202 5.51675 66.8181 5.76389C67.4341 6.01103 67.7245 6.73236 67.4667 7.37504Z" fill="#1F79F2"/>
<path d="M93.1099 80V0H114.818V31.25H143.554V0H165.262V80H143.554V48.75H114.818V80H93.1099Z" fill="#1F79F2"/>
<path d="M175.57 80V0H233.198V17.5H197.278V31.25H230.231V48.75H197.278V62.5H233.042V80H175.57Z" fill="#1F79F2"/>
<path d="M264.736 80H241.31L267.703 0H297.376L323.77 80H300.344L282.852 22.0313H282.227L264.736 80ZM260.363 48.4375H304.404V64.6875H260.363V48.4375Z" fill="#1F79F2"/>
<path d="M362.238 80H331.471V0H361.925C370.15 0 377.256 1.60156 383.243 4.80469C389.256 7.98177 393.889 12.5651 397.143 18.5547C400.422 24.5182 402.062 31.6667 402.062 40C402.062 48.3333 400.435 55.4948 397.182 61.4844C393.928 67.4479 389.321 72.0312 383.36 75.2344C377.4 78.4115 370.359 80 362.238 80ZM353.179 61.5625H361.457C365.413 61.5625 368.784 60.9245 371.569 59.6484C374.38 58.3724 376.515 56.1719 377.972 53.0469C379.456 49.9219 380.198 45.5729 380.198 40C380.198 34.4271 379.443 30.0781 377.933 26.9531C376.449 23.8281 374.263 21.6276 371.374 20.3516C368.511 19.0755 364.997 18.4375 360.832 18.4375H353.179V61.5625Z" fill="#1F79F2"/>
<path d="M412.106 80V0H433.814V62.5H466.142V80H412.106Z" fill="#1F79F2"/>
<path d="M496.626 0V80H474.917V0H496.626Z" fill="#1F79F2"/>
<path d="M576.099 0V80H557.983L529.091 37.9687H528.622V80H506.914V0H525.342L553.766 41.875H554.391V0H576.099Z" fill="#1F79F2"/>
<path d="M586.368 80V0H643.996V17.5H608.076V31.25H641.029V48.75H608.076V62.5H643.84V80H586.368Z" fill="#1F79F2"/>
</svg>
