<svg width="1633" height="237" viewBox="0 0 1633 237" fill="none" xmlns="http://www.w3.org/2000/svg">
<path d="M0.913086 237V0.000488281H65.2238V92.5786H150.355V0.000488281H214.665V237H150.355V144.422H65.2238V237H0.913086Z" fill="#1F79F2"/>
<path d="M245.201 237V0.000488281H415.925V51.8442H309.512V92.5786H407.135V144.422H309.512V185.157H415.463V237H245.201Z" fill="#1F79F2"/>
<path d="M509.355 237H439.955L518.146 0.000488281H606.053L684.243 237H614.843L563.025 65.2681H561.174L509.355 237ZM496.4 143.497H626.873V191.637H496.4V143.497Z" fill="#1F79F2"/>
<path d="M798.204 237H707.059V0.000488281H797.279C821.646 0.000488281 842.697 4.74512 860.433 14.2344C878.245 23.6465 891.971 37.2246 901.61 54.9688C911.326 72.6357 916.184 93.813 916.184 118.5C916.184 143.188 911.365 164.404 901.726 182.148C892.087 199.815 878.438 213.393 860.78 222.882C843.121 232.294 822.263 237 798.204 237ZM771.369 182.379H795.891C807.611 182.379 817.597 180.489 825.848 176.709C834.176 172.929 840.499 166.41 844.818 157.152C849.213 147.894 851.411 135.01 851.411 118.5C851.411 101.991 849.174 89.1069 844.702 79.8491C840.307 70.5913 833.829 64.0723 825.27 60.292C816.788 56.5117 806.378 54.6216 794.04 54.6216H771.369V182.379Z" fill="#1F79F2"/>
<path d="M945.939 237V0.000488281H1010.25V185.157H1106.02V237H945.939Z" fill="#1F79F2"/>
<path d="M1196.33 0.000488281V237H1132.02V0.000488281H1196.33Z" fill="#1F79F2"/>
<path d="M1431.77 0.000488281V237H1378.1L1292.51 112.483H1291.12V237H1226.81V0.000488281H1281.4L1365.61 124.055H1367.46V0.000488281H1431.77Z" fill="#1F79F2"/>
<path d="M1462.19 237V0.000488281H1632.91V51.8442H1526.5V92.5786H1624.12V144.422H1526.5V185.157H1632.45V237H1462.19Z" fill="#1F79F2"/>
</svg>
