<svg width="197" height="48" viewBox="0 0 197 48" fill="none" xmlns="http://www.w3.org/2000/svg">
<path d="M0.60498 37.5274V12.8103L25.8475 21.4613V47.0023L0.60498 37.5274Z" fill="#FF6771"/>
<path d="M28.2515 45.7667V30.3185L39.0697 34.232L28.2515 45.7667Z" fill="#FF6771"/>
<path fill-rule="evenodd" clip-rule="evenodd" d="M13.1176 0L39.6752 7.56139V34.1803L27.8469 47.447V29.539L38.8655 33.4526V8.85315L26.4529 21.4217V48L0 38.0135V12.2224L13.1176 0ZM25.9378 20.791L38.5018 8.06917L13.6313 0.988136V16.6393L25.9378 20.791ZM12.8216 16.3575L1.16952 12.2394L12.8216 1.3825V16.3575ZM0.809698 12.971L13.0916 17.3117L25.6432 21.5462V46.8288L0.809698 37.4537V12.971ZM38.5675 34.206L28.6566 30.6859V45.3221L38.5675 34.206Z" fill="#FF6771"/>
<path d="M51.8372 22.6066H54.8344L57.5972 13.0967H57.7108L60.4807 22.6066H63.4779L67.6398 8.06117H64.2804L61.8727 18.189H61.7449L59.0957 8.06117H56.2193L53.5631 18.1677H53.4423L51.0347 8.06117H47.6753L51.8372 22.6066Z" fill="black"/>
<path d="M73.0286 22.8197C75.7275 22.8197 77.5457 21.5058 77.9718 19.4816L75.1735 19.297C74.8681 20.1279 74.0869 20.5612 73.0783 20.5612C71.5656 20.5612 70.6068 19.5597 70.6068 17.9333V17.9262H78.0357V17.0953C78.0357 13.3879 75.7914 11.5555 72.9079 11.5555C69.6977 11.5555 67.6167 13.8353 67.6167 17.2018C67.6167 20.6606 69.6693 22.8197 73.0286 22.8197ZM70.6068 16.0512C70.6707 14.8083 71.6153 13.814 72.9576 13.814C74.2715 13.814 75.1806 14.7515 75.1877 16.0512H70.6068Z" fill="black"/>
<path d="M80.067 22.6066H83.0499V20.8595H83.1849C83.6039 21.7686 84.5201 22.7842 86.2815 22.7842C88.7673 22.7842 90.7062 20.8169 90.7062 17.1663C90.7062 13.4163 88.682 11.5555 86.2886 11.5555C84.4633 11.5555 83.5897 12.6421 83.1849 13.5299H83.0926V8.06117H80.067V22.6066ZM83.0286 17.1521C83.0286 15.2061 83.8525 13.9632 85.3227 13.9632C86.8212 13.9632 87.6167 15.2629 87.6167 17.1521C87.6167 19.0555 86.807 20.3765 85.3227 20.3765C83.8667 20.3765 83.0286 19.0981 83.0286 17.1521Z" fill="black"/>
<path d="M98.073 22.8055C101.34 22.8055 103.677 21.0086 103.67 18.5228C103.677 16.7117 102.526 15.4191 100.388 15.1492V15.0356C102.015 14.7444 103.137 13.5938 103.13 11.9603C103.137 9.66628 101.127 7.8623 98.1156 7.8623C95.1327 7.8623 92.8884 9.60946 92.8457 12.1237H95.7932C95.8287 11.0157 96.8443 10.2984 98.1014 10.2984C99.3443 10.2984 100.175 11.0512 100.168 12.145C100.175 13.2884 99.2023 14.0626 97.8031 14.0626H96.4466V16.3211H97.8031C99.4509 16.3211 100.481 17.145 100.474 18.3169C100.481 19.4745 99.4864 20.27 98.0801 20.27C96.7236 20.27 95.708 19.5597 95.6511 18.4944H92.5546C92.6043 21.037 94.877 22.8055 98.073 22.8055Z" fill="black"/>
<path d="M113.856 12.2444H116.803C116.761 9.65208 114.63 7.8623 111.392 7.8623C108.203 7.8623 105.866 9.62367 105.88 12.2657C105.873 14.4106 107.386 15.6393 109.843 16.2288L111.427 16.6265C113.011 17.01 113.892 17.4646 113.899 18.4447C113.892 19.51 112.883 20.2345 111.321 20.2345C109.723 20.2345 108.572 19.4958 108.473 18.0399H105.497C105.575 21.1862 107.826 22.8126 111.356 22.8126C114.907 22.8126 116.995 21.1151 117.002 18.4518C116.995 16.0299 115.17 14.7444 112.642 14.1762L111.335 13.8637C110.071 13.5725 109.012 13.1038 109.034 12.0597C109.034 11.1222 109.865 10.4333 111.37 10.4333C112.84 10.4333 113.742 11.1009 113.856 12.2444Z" fill="black"/>
<path d="M126.01 17.9617C126.017 19.4248 125.015 20.1919 123.929 20.1919C122.785 20.1919 122.047 19.3893 122.04 18.1038V11.6975H119.014V18.6436C119.021 21.1933 120.513 22.7487 122.707 22.7487C124.348 22.7487 125.527 21.9035 126.017 20.6251H126.131V22.6066H129.035V11.6975H126.01V17.9617Z" fill="black"/>
<path d="M131.512 22.6066H134.495V20.8595H134.63C135.049 21.7686 135.965 22.7842 137.727 22.7842C140.213 22.7842 142.152 20.8169 142.152 17.1663C142.152 13.4163 140.127 11.5555 137.734 11.5555C135.909 11.5555 135.035 12.6421 134.63 13.5299H134.538V8.06117H131.512V22.6066ZM134.474 17.1521C134.474 15.2061 135.298 13.9632 136.768 13.9632C138.267 13.9632 139.062 15.2629 139.062 17.1521C139.062 19.0555 138.252 20.3765 136.768 20.3765C135.312 20.3765 134.474 19.0981 134.474 17.1521Z" fill="black"/>
<path d="M153.247 14.8083C152.977 12.7984 151.358 11.5555 148.602 11.5555C145.811 11.5555 143.971 12.8481 143.979 14.9504C143.971 16.5839 145.001 17.6421 147.132 18.0683L149.021 18.4447C149.973 18.6365 150.406 18.9845 150.42 19.5313C150.406 20.1776 149.703 20.6393 148.645 20.6393C147.565 20.6393 146.848 20.1776 146.663 19.2899L143.687 19.4461C143.971 21.5342 145.747 22.8197 148.638 22.8197C151.464 22.8197 153.489 21.3779 153.496 19.2259C153.489 17.6492 152.459 16.7046 150.342 16.2714L148.368 15.8737C147.352 15.6535 146.976 15.3055 146.983 14.7799C146.976 14.1265 147.714 13.7004 148.652 13.7004C149.703 13.7004 150.328 14.2757 150.477 14.9788L153.247 14.8083Z" fill="black"/>
<path d="M161.203 11.6975H159.151V9.0839H156.125V11.6975H154.634V13.9703H156.125V19.6521C156.111 21.7899 157.567 22.8481 159.762 22.7558C160.543 22.7274 161.097 22.5711 161.402 22.4717L160.926 20.2203C160.777 20.2487 160.458 20.3197 160.174 20.3197C159.57 20.3197 159.151 20.0924 159.151 19.2544V13.9703H161.203V11.6975Z" fill="black"/>
<path d="M166.285 22.8126C167.897 22.8126 168.941 22.1095 169.474 21.0938H169.559V22.6066H172.428V15.2487C172.428 12.6492 170.227 11.5555 167.798 11.5555C165.184 11.5555 163.465 12.8055 163.046 14.7941L165.845 15.0214C166.051 14.297 166.697 13.7643 167.784 13.7643C168.813 13.7643 169.403 14.2828 169.403 15.1776V15.2203C169.403 15.9234 168.657 16.0157 166.761 16.2004C164.602 16.3992 162.663 17.1237 162.663 19.5597C162.663 21.7188 164.204 22.8126 166.285 22.8126ZM167.152 20.7245C166.221 20.7245 165.553 20.2913 165.553 19.4603C165.553 18.608 166.257 18.189 167.322 18.0399C167.982 17.9475 169.062 17.7913 169.424 17.5498V18.7075C169.424 19.8509 168.48 20.7245 167.152 20.7245Z" fill="black"/>
<path d="M179.705 22.8197C182.61 22.8197 184.435 21.1151 184.577 18.608H181.722C181.544 19.7728 180.777 20.4262 179.74 20.4262C178.327 20.4262 177.411 19.2401 177.411 17.1521C177.411 15.0924 178.334 13.9134 179.74 13.9134C180.848 13.9134 181.558 14.645 181.722 15.7316H184.577C184.449 13.2103 182.539 11.5555 179.691 11.5555C176.381 11.5555 174.335 13.8495 174.335 17.1947C174.335 20.5115 176.345 22.8197 179.705 22.8197Z" fill="black"/>
<path d="M186.514 22.6066H189.54V19.1407L190.356 18.2103L193.332 22.6066H196.876L192.622 16.4205L196.67 11.6975H193.197L189.703 15.8382H189.54V8.06117H186.514V22.6066Z" fill="black"/>
<path d="M47.6753 38.0924H48.556V35.4362H50.1469C51.8408 35.4362 52.6043 34.4063 52.6043 33.1208C52.6043 31.8353 51.8408 30.8197 50.1327 30.8197H47.6753V38.0924ZM48.556 34.6549V31.601H50.1043C51.2868 31.601 51.7378 32.2473 51.7378 33.1208C51.7378 33.9944 51.2868 34.6549 50.1185 34.6549H48.556Z" fill="black"/>
<path d="M56.0666 38.2061C57.5439 38.2061 58.5382 37.0839 58.5382 35.3936C58.5382 33.689 57.5439 32.5669 56.0666 32.5669C54.5894 32.5669 53.595 33.689 53.595 35.3936C53.595 37.0839 54.5894 38.2061 56.0666 38.2061ZM56.0666 37.4532C54.9445 37.4532 54.4331 36.4873 54.4331 35.3936C54.4331 34.2998 54.9445 33.3197 56.0666 33.3197C57.1888 33.3197 57.7002 34.2998 57.7002 35.3936C57.7002 36.4873 57.1888 37.4532 56.0666 37.4532Z" fill="black"/>
<path d="M60.8678 38.0924H61.6916L62.8848 33.9021H62.97L64.1632 38.0924H64.9871L66.649 32.6379H65.7683L64.5894 36.7998H64.5325L63.382 32.6379H62.4871L61.3223 36.814H61.2655L60.0865 32.6379H59.2058L60.8678 38.0924Z" fill="black"/>
<path d="M69.8584 38.2061C70.9663 38.2061 71.776 37.6521 72.0317 36.8282L71.222 36.601C71.0089 37.1691 70.5153 37.4532 69.8584 37.4532C68.8747 37.4532 68.1964 36.8176 68.1574 35.6492H72.1169V35.2941C72.1169 33.2629 70.9095 32.5669 69.7731 32.5669C68.2959 32.5669 67.3157 33.7316 67.3157 35.4078C67.3157 37.0839 68.2817 38.2061 69.8584 38.2061ZM68.1574 34.9248C68.2142 34.0761 68.8143 33.3197 69.7731 33.3197C70.6822 33.3197 71.2646 34.0015 71.2646 34.9248H68.1574Z" fill="black"/>
<path d="M73.3917 38.0924H74.2298V34.6407C74.2298 33.9021 74.8122 33.3623 75.6076 33.3623C75.8314 33.3623 76.0622 33.4049 76.119 33.4191V32.5669C76.0231 32.5598 75.803 32.5527 75.6787 32.5527C75.0253 32.5527 74.4571 32.922 74.2582 33.4617H74.2014V32.6379H73.3917V38.0924Z" fill="black"/>
<path d="M80.0386 38.0924H80.8482V37.2544H80.9477C81.1323 37.5527 81.4874 38.2061 82.5386 38.2061C83.9022 38.2061 84.8539 37.1123 84.8539 35.3794C84.8539 33.6606 83.9022 32.5669 82.5244 32.5669C81.459 32.5669 81.1323 33.2203 80.9477 33.5044H80.8766V30.8197H80.0386V38.0924ZM80.8624 35.3652C80.8624 34.1436 81.4022 33.3197 82.4249 33.3197C83.4903 33.3197 84.0159 34.2146 84.0159 35.3652C84.0159 36.5299 83.4761 37.4532 82.4249 37.4532C81.4164 37.4532 80.8624 36.601 80.8624 35.3652Z" fill="black"/>
<path d="M86.4803 40.1379C87.2367 40.1379 87.7694 39.7366 88.0854 38.8879L90.4079 32.6521L89.4917 32.6379L87.986 36.9845H87.9292L86.4235 32.6379H85.5144L87.5315 38.1208L87.3752 38.547C87.0698 39.3779 86.6934 39.4561 86.0826 39.2998L85.8695 40.0385C85.9548 40.0811 86.1962 40.1379 86.4803 40.1379Z" fill="black"/>
<path d="M99.2156 30.8197V35.564C99.2156 36.6294 98.4841 37.3964 97.2696 37.3964C96.0551 37.3964 95.3236 36.6294 95.3236 35.564V30.8197H94.4429V35.635C94.4429 37.1265 95.5579 38.2203 97.2696 38.2203C98.9812 38.2203 100.096 37.1265 100.096 35.635V30.8197H99.2156Z" fill="black"/>
<path d="M102.579 34.8112C102.579 33.8595 103.169 33.3197 103.971 33.3197C104.749 33.3197 105.221 33.8275 105.221 34.6833V38.0924H106.06V34.6265C106.06 33.2345 105.317 32.5669 104.213 32.5669C103.389 32.5669 102.878 32.9362 102.622 33.4902H102.551V32.6379H101.741V38.0924H102.579V34.8112Z" fill="black"/>
<path d="M108.429 30.8197H107.591V38.0924H108.429V30.8197Z" fill="black"/>
<path d="M112.18 38.2061C113.657 38.2061 114.651 37.0839 114.651 35.3936C114.651 33.689 113.657 32.5669 112.18 32.5669C110.703 32.5669 109.708 33.689 109.708 35.3936C109.708 37.0839 110.703 38.2061 112.18 38.2061ZM112.18 37.4532C111.058 37.4532 110.546 36.4873 110.546 35.3936C110.546 34.2998 111.058 33.3197 112.18 33.3197C113.302 33.3197 113.813 34.2998 113.813 35.3936C113.813 36.4873 113.302 37.4532 112.18 37.4532Z" fill="black"/>
<path d="M118.147 38.2061C119.354 38.2061 120.15 37.4674 120.292 36.5015H119.454C119.297 37.0981 118.8 37.4532 118.147 37.4532C117.152 37.4532 116.513 36.6294 116.513 35.3652C116.513 34.1294 117.167 33.3197 118.147 33.3197C118.885 33.3197 119.326 33.7742 119.454 34.2714H120.292C120.15 33.2487 119.283 32.5669 118.132 32.5669C116.655 32.5669 115.675 33.7316 115.675 35.3936C115.675 37.0271 116.613 38.2061 118.147 38.2061Z" fill="black"/>
<path d="M121.517 38.0924H122.355V36.0505L122.941 35.5072L124.983 38.0924H126.048L123.573 34.9674L125.878 32.6379H124.841L122.454 35.0669H122.355V30.8197H121.517V38.0924Z" fill="black"/>
<path d="M129.882 38.0924H130.763V35.4362H132.354C134.048 35.4362 134.811 34.4063 134.811 33.1208C134.811 31.8353 134.048 30.8197 132.34 30.8197H129.882V38.0924ZM130.763 34.6549V31.601H132.311C133.494 31.601 133.945 32.2473 133.945 33.1208C133.945 33.9944 133.494 34.6549 132.326 34.6549H130.763Z" fill="black"/>
<path d="M136.116 38.0924H136.954V34.6407C136.954 33.9021 137.537 33.3623 138.332 33.3623C138.556 33.3623 138.787 33.4049 138.844 33.4191V32.5669C138.748 32.5598 138.528 32.5527 138.403 32.5527C137.75 32.5527 137.182 32.922 136.983 33.4617H136.926V32.6379H136.116V38.0924Z" fill="black"/>
<path d="M141.887 38.2061C143.364 38.2061 144.359 37.0839 144.359 35.3936C144.359 33.689 143.364 32.5669 141.887 32.5669C140.41 32.5669 139.415 33.689 139.415 35.3936C139.415 37.0839 140.41 38.2061 141.887 38.2061ZM141.887 37.4532C140.765 37.4532 140.253 36.4873 140.253 35.3936C140.253 34.2998 140.765 33.3197 141.887 33.3197C143.009 33.3197 143.52 34.2998 143.52 35.3936C143.52 36.4873 143.009 37.4532 141.887 37.4532Z" fill="black"/>
<path d="M148.01 32.6379H146.845V31.3311H146.007V32.6379H145.183V33.3481H146.007V36.7572C146.007 37.7089 146.774 38.1635 147.484 38.1635C147.797 38.1635 147.996 38.1066 148.109 38.064L147.939 37.3112C147.868 37.3254 147.754 37.3538 147.57 37.3538C147.2 37.3538 146.845 37.2402 146.845 36.5299V33.3481H148.01V32.6379Z" fill="black"/>
<path d="M151.428 38.2061C152.905 38.2061 153.9 37.0839 153.9 35.3936C153.9 33.689 152.905 32.5669 151.428 32.5669C149.951 32.5669 148.956 33.689 148.956 35.3936C148.956 37.0839 149.951 38.2061 151.428 38.2061ZM151.428 37.4532C150.306 37.4532 149.794 36.4873 149.794 35.3936C149.794 34.2998 150.306 33.3197 151.428 33.3197C152.55 33.3197 153.061 34.2998 153.061 35.3936C153.061 36.4873 152.55 37.4532 151.428 37.4532Z" fill="black"/>
<path d="M157.395 38.2061C158.602 38.2061 159.398 37.4674 159.54 36.5015H158.702C158.545 37.0981 158.048 37.4532 157.395 37.4532C156.4 37.4532 155.761 36.6294 155.761 35.3652C155.761 34.1294 156.415 33.3197 157.395 33.3197C158.133 33.3197 158.574 33.7742 158.702 34.2714H159.54C159.398 33.2487 158.531 32.5669 157.381 32.5669C155.903 32.5669 154.923 33.7316 154.923 35.3936C154.923 37.0271 155.861 38.2061 157.395 38.2061Z" fill="black"/>
<path d="M162.981 38.2061C164.458 38.2061 165.452 37.0839 165.452 35.3936C165.452 33.689 164.458 32.5669 162.981 32.5669C161.503 32.5669 160.509 33.689 160.509 35.3936C160.509 37.0839 161.503 38.2061 162.981 38.2061ZM162.981 37.4532C161.859 37.4532 161.347 36.4873 161.347 35.3936C161.347 34.2998 161.859 33.3197 162.981 33.3197C164.103 33.3197 164.614 34.2998 164.614 35.3936C164.614 36.4873 164.103 37.4532 162.981 37.4532Z" fill="black"/>
<path d="M167.57 30.8197H166.732V38.0924H167.57V30.8197Z" fill="black"/>
</svg>
