<svg width="24" height="24" viewBox="0 0 24 24" fill="none" xmlns="http://www.w3.org/2000/svg">
<path d="M15.2431 4.51488L8.5051 11.2519L7.7981 13.3729L6.7581 14.4139L9.5861 17.2429L10.6261 16.2019L12.7481 15.4949L19.4851 8.75688L15.2431 4.51488V4.51488ZM21.6071 8.04988C21.7946 8.23741 21.8999 8.49172 21.8999 8.75688C21.8999 9.02205 21.7946 9.27636 21.6071 9.46388L13.8281 17.2429L11.7081 17.9499L10.2931 19.3639C10.1056 19.5514 9.85127 19.6567 9.5861 19.6567C9.32094 19.6567 9.06663 19.5514 8.8791 19.3639L4.6361 15.1209C4.44863 14.9334 4.34332 14.679 4.34332 14.4139C4.34332 14.1487 4.44863 13.8944 4.6361 13.7069L6.0501 12.2929L6.7571 10.1719L14.5361 2.39288C14.7236 2.20541 14.9779 2.1001 15.2431 2.1001C15.5083 2.1001 15.7626 2.20541 15.9501 2.39288L21.6071 8.04988V8.04988ZM15.2431 7.34288L16.6571 8.75688L11.7071 13.7069L10.2931 12.2929L15.2431 7.34288V7.34288ZM4.2831 16.8899L7.1111 19.7189L5.6971 21.1329L1.4541 19.7189L4.2821 16.8899H4.2831Z" fill="black"/>
</svg>
