<svg width="48" height="60" viewBox="0 0 48 60" fill="none" xmlns="http://www.w3.org/2000/svg">
<path d="M0.731934 46.9093V16.0129L31.271 26.8267V58.7529L0.731934 46.9093Z" fill="#FF6771"/>
<path d="M34.1792 57.2082V37.8979L47.2674 42.7899L34.1792 57.2082Z" fill="#FF6771"/>
<path fill-rule="evenodd" clip-rule="evenodd" d="M15.87 0L48 9.45174V42.7253L33.6899 59.3087V36.9238L47.0204 41.8157V11.0664L32.0034 26.7771V60L0 47.5168V15.278L15.87 0ZM31.3801 25.9888L46.5803 10.0865L16.4915 1.23517V20.7991L31.3801 25.9888ZM15.5119 20.4469L1.41491 15.2992L15.5119 1.72813V20.4469ZM0.979592 16.2138L15.8385 21.6396L31.0238 26.9327V58.5361L0.979592 46.8171V16.2138ZM46.6599 42.7575L34.6695 38.3573V56.6526L46.6599 42.7575Z" fill="#FF6771"/>
</svg>
